<?xml version="1.0" standalone="no"?>
<!DOCTYPE svg PUBLIC "-//W3C//DTD SVG 20010904//EN"
 "http://www.w3.org/TR/2001/REC-SVG-20010904/DTD/svg10.dtd">
<svg version="1.0" xmlns="http://www.w3.org/2000/svg"
 width="1717.000000pt" height="1397.000000pt" viewBox="0 0 1717.000000 1397.000000"
 preserveAspectRatio="xMidYMid meet">

<g transform="translate(0.000000,1397.000000) scale(0.100000,-0.100000)"
fill="#000000" stroke="none">
<path d="M11680 13400 l0 -570 240 0 240 0 0 -1080 0 -1080 -240 0 -240 0 0
-560 0 -560 1360 0 1360 0 0 560 0 560 -240 0 -240 0 0 310 0 310 1278 0 1277
0 348 348 347 347 0 605 0 605 -387 387 -388 388 -2357 0 -2358 0 0 -570z
m3740 -960 l0 -390 -750 0 -750 0 0 390 0 390 750 0 750 0 0 -390z"/>
<path d="M457 13468 l-457 -492 1 -546 1 -545 395 -362 396 -363 1379 0 1378
0 0 -330 0 -330 -1155 0 -1155 0 0 195 0 195 -620 0 -620 0 0 -675 0 -675 443
0 442 0 158 190 c87 105 162 190 167 190 4 0 88 -85 186 -190 l177 -190 1533
0 1533 0 431 465 430 466 0 512 0 512 -452 427 -453 427 -1342 1 -1343 0 0
325 0 325 1050 0 1050 0 0 -190 0 -190 615 0 615 0 0 670 0 670 -442 -1 -443
0 -155 -189 c-85 -104 -158 -189 -162 -189 -4 -1 -87 85 -185 189 l-177 190
-1382 0 -1381 0 -456 -492z"/>
<path d="M5840 13395 l0 -565 240 0 240 0 0 -1158 0 -1157 488 -488 487 -487
1318 0 1319 0 489 483 489 482 0 1163 0 1162 210 0 210 0 0 565 0 565 -1060 0
-1060 0 0 -565 0 -565 185 0 185 0 0 -1080 0 -1080 -750 0 -750 0 0 1080 0
1080 210 0 210 0 0 565 0 565 -1330 0 -1330 0 0 -565z"/>
<path d="M0 8635 l0 -565 240 0 240 0 0 -1080 0 -1080 -240 0 -240 0 0 -565 0
-565 2503 0 2502 1 242 262 242 262 1 768 0 767 -685 0 -685 0 0 -465 0 -465
-940 0 -940 0 0 335 0 335 405 0 405 0 0 410 0 410 -405 0 -405 0 0 335 0 335
940 0 940 0 0 -465 0 -465 685 0 685 0 0 768 -1 767 -240 263 -241 262 -2504
0 -2504 0 0 -565z"/>
<path d="M5840 8635 l0 -565 240 0 240 0 0 -1080 0 -1080 -240 0 -240 0 0
-565 0 -565 1295 0 1295 0 0 565 0 565 -180 0 -180 0 0 370 0 370 510 0 510 0
0 -693 0 -692 243 -243 242 -242 873 0 872 0 0 485 0 485 -205 0 -205 0 0 414
0 413 -320 243 c-176 133 -320 245 -320 249 0 3 144 114 320 246 l320 240 0
460 0 460 -363 363 -362 362 -2173 0 -2172 0 0 -565z m3250 -935 l0 -370 -510
0 -510 0 0 370 0 370 510 0 510 0 0 -370z"/>
<path d="M12253 8637 l-572 -562 -1 -1081 0 -1082 578 -566 577 -566 1670 0
1671 0 497 486 497 485 0 450 0 449 -685 0 -685 0 0 -370 0 -370 -1160 0
-1160 0 0 1085 0 1085 1160 0 1160 0 0 -365 0 -365 685 0 685 0 0 925 0 925
-527 0 -528 -1 -155 -199 c-85 -110 -158 -200 -162 -200 -4 0 -80 90 -168 200
l-161 200 -1322 -1 -1322 0 -572 -562z"/>
<path d="M0 3855 l0 -565 240 0 240 0 0 -1080 0 -1080 -240 0 -240 0 0 -565 0
-565 2503 0 2502 0 242 263 242 262 0 768 1 767 -685 0 -685 0 0 -465 0 -465
-940 0 -940 0 0 335 0 335 405 0 405 0 0 410 0 410 -405 0 -405 0 0 335 0 335
940 0 940 0 0 -465 0 -465 685 0 685 0 0 768 -1 767 -240 263 -241 262 -2504
0 -2504 0 0 -565z"/>
<path d="M5840 3855 l0 -565 240 0 240 0 0 -1080 0 -1080 -240 0 -240 0 0
-565 0 -565 2503 0 2502 0 242 263 242 262 1 1018 0 1017 -685 0 -685 0 0
-715 0 -715 -945 0 -945 0 0 1080 0 1080 240 0 240 0 0 565 0 565 -1355 0
-1355 0 0 -565z"/>
<path d="M11670 3855 l0 -565 240 0 240 0 0 -1080 0 -1080 -240 0 -240 0 0
-565 0 -565 2505 0 2504 0 246 265 245 265 0 1015 0 1015 -685 0 -685 0 0
-715 0 -715 -945 0 -945 0 0 1080 0 1080 240 0 240 0 0 565 0 565 -1360 0
-1360 0 0 -565z"/>
</g>
</svg>
